<svg xmlns="http://www.w3.org/2000/svg" viewBox="0 195 512 120">
<style type="text/css">
	.st0{fill:#0099CC;}
	.st1{fill:#33CCFF;}
	.st2{fill:#231F20;}
</style>
<g id="XMLID_1_">
	<path id="XMLID_2_" class="st0" d="M153.04,225.14h-37.45l-15.43,60.32h46.99c16.41,0,36.47-11.5,36.47-33.53
		C183.48,235.94,174.36,225.14,153.04,225.14z M158.23,254.74c-1.12,10.94-7.86,19.5-23.99,19.5h-5.89l8.7-33.67h7.43
		C152.34,240.57,159.49,242.67,158.23,254.74z"/>
	<path id="XMLID_5_" class="st0" d="M244.64,225.14h-28.2l-34.09,60.32h14.03l5.61-9.82h26.65l1.82,9.82h25.39L244.64,225.14z
		 M210.55,260.21l11.36-20.06l3.79,20.06H210.55z"/>
	<polygon id="XMLID_8_" class="st0" points="495.31,225.7 512,225.7 496.57,285.74 468.52,285.74 455.19,251.65 446.49,285.74
		429.66,285.74 445.23,225.84 472.72,225.7 486.33,260.49 	"/>
	<polygon id="XMLID_9_" class="st0" points="320.53,225.7 346.06,225.7 340.87,245.76 363.87,225.7 388.84,225.7 356.3,254.18
		379.16,285.74 350.4,285.74 335.68,265.54 330.49,285.74 305.1,285.74 	"/>
	<polygon id="XMLID_10_" class="st0" points="404.97,225.7 430.36,225.7 414.93,285.74 389.54,285.74 	"/>
	<polyline id="XMLID_11_" class="st0" points="280.41,225.7 305.94,225.7 290.37,285.74 264.98,285.74 280.41,225.7 	"/>
	<polyline id="XMLID_12_" class="st1" points="0,202.56 115.73,202.56 0,309.44 0,202.56 	"/>
	<polyline id="XMLID_13_" class="st2" points="57.79,202.56 0,202.56 0,256 57.79,202.56 	"/>
</g>
</svg>